# Blender 4.5.9 LTS
# www.blender.org
mtllib checkpoint4old.mtl
o checkpoint4old
v -0.000356 -0.002773 0.005294
v -0.000356 -0.005294 -0.002773
v -0.000356 0.005294 0.002773
v -0.000356 0.002773 -0.005294
v 0.000356 0.005294 0.002773
v 0.000356 -0.002773 0.005294
v 0.000356 -0.005294 -0.002773
v 0.000356 0.002773 -0.005294
vn -1.0000 -0.0000 -0.0000
vn 1.0000 -0.0000 -0.0000
vn -0.0000 -0.2982 -0.9545
vn -0.0000 0.2982 0.9545
vn -0.0000 0.9545 -0.2982
vn -0.0000 -0.9545 0.2982
vt 0.000000 0.000000
vt 0.000000 1.000000
vt 1.000000 1.000000
vt 1.000000 0.000000
s 0
usemtl Material.157
f 1/1/1 3/2/1 4/3/1 2/4/1
f 6/1/2 7/4/2 8/3/2 5/2/2
f 2/4/3 4/3/3 8/3/3 7/4/3
f 3/2/4 1/1/4 6/1/4 5/2/4
f 4/3/5 3/2/5 5/2/5 8/3/5
f 1/1/6 2/4/6 7/4/6 6/1/6
