# Blender 4.5.9 LTS
# www.blender.org
mtllib ring_single_convex_mesh.mtl
o ring_single_convex_mesh
v -0.007574 0.000000 -0.000650
v -0.008224 0.000000 0.000000
v -0.007574 0.000000 0.000650
v -0.006926 0.000000 0.000000
v -0.005356 0.005356 -0.000650
v -0.005814 0.005814 0.000000
v -0.005356 0.005356 0.000650
v -0.004896 0.004896 0.000000
v -0.000000 -0.007574 -0.000650
v -0.000000 -0.008224 0.000000
v -0.000000 -0.007574 0.000650
v -0.000000 -0.006926 0.000000
v 0.005356 -0.005356 -0.000650
v 0.005814 -0.005814 0.000000
v 0.005356 -0.005356 0.000650
v 0.004896 -0.004896 0.000000
v -0.000000 -0.007574 -0.000650
v -0.000000 -0.008224 0.000000
v -0.000000 -0.007574 0.000650
v -0.000000 -0.006926 0.000000
v -0.005356 -0.005356 -0.000650
v -0.005814 -0.005814 0.000000
v -0.005356 -0.005356 0.000650
v -0.004896 -0.004896 0.000000
v -0.005356 -0.005356 -0.000650
v -0.005814 -0.005814 0.000000
v -0.005356 -0.005356 0.000650
v -0.004896 -0.004896 0.000000
v -0.007574 0.000000 -0.000650
v -0.008224 0.000000 0.000000
v -0.007574 0.000000 0.000650
v -0.006926 0.000000 0.000000
v -0.005356 0.005356 -0.000650
v -0.005814 0.005814 0.000000
v -0.005356 0.005356 0.000650
v -0.004896 0.004896 0.000000
v -0.000000 0.007574 -0.000650
v -0.000000 0.008224 0.000000
v -0.000000 0.007574 0.000650
v -0.000000 0.006926 0.000000
v -0.000000 0.007574 -0.000650
v -0.000000 0.008224 0.000000
v -0.000000 0.007574 0.000650
v -0.000000 0.006926 0.000000
v 0.005356 0.005356 -0.000650
v 0.005814 0.005814 0.000000
v 0.005356 0.005356 0.000650
v 0.004896 0.004896 0.000000
v 0.005356 0.005356 -0.000650
v 0.005814 0.005814 0.000000
v 0.005356 0.005356 0.000650
v 0.004896 0.004896 0.000000
v 0.007574 0.000000 -0.000650
v 0.008224 0.000000 0.000000
v 0.007574 0.000000 0.000650
v 0.006926 0.000000 0.000000
v 0.007574 0.000000 -0.000650
v 0.008224 0.000000 0.000000
v 0.007574 0.000000 0.000650
v 0.006926 0.000000 0.000000
v 0.005356 -0.005356 -0.000650
v 0.005814 -0.005814 0.000000
v 0.005356 -0.005356 0.000650
v 0.004896 -0.004896 0.000000
vn -0.1440 -0.5475 -0.8243
vn 0.2854 0.4892 -0.8242
vn 0.9998 0.0200 -0.0000
vn 0.6922 -0.7217 -0.0000
vn -0.9024 -0.4310 -0.0000
vn -0.3321 0.9432 -0.0000
vn -0.1440 -0.5475 0.8243
vn 0.2854 0.4892 0.8242
vn 0.4892 0.2854 -0.8242
vn 0.0711 -0.1716 -0.9826
vn -0.3828 0.9238 -0.0000
vn 0.0200 0.9998 -0.0000
vn 0.9432 -0.3321 -0.0000
vn 0.3828 -0.9238 -0.0000
vn 0.4892 0.2854 0.8242
vn 0.0711 -0.1716 0.9826
vn 1.0000 -0.0000 -0.0000
vn 0.5475 -0.1440 -0.8243
vn -0.0712 -0.1718 -0.9826
vn 0.3828 0.9238 -0.0000
vn 0.7217 0.6922 -0.0000
vn 0.4310 -0.9024 -0.0000
vn -0.3828 -0.9238 -0.0000
vn 0.5475 -0.1440 0.8243
vn -0.0712 -0.1718 0.9826
vn 0.7071 -0.7071 -0.0000
vn 0.2854 -0.4892 -0.8242
vn -0.1716 -0.0711 -0.9826
vn 0.9238 0.3828 -0.0000
vn 0.9998 -0.0200 -0.0000
vn -0.3321 -0.9432 -0.0000
vn -0.9238 -0.3828 -0.0000
vn 0.2854 -0.4892 0.8242
vn -0.1716 -0.0711 0.9826
vn -0.0000 -1.0000 -0.0000
vn -0.4892 -0.2854 -0.8242
vn -0.0711 0.1716 -0.9826
vn -0.0200 -0.9998 -0.0000
vn -0.9432 0.3321 -0.0000
vn -0.4892 -0.2854 0.8242
vn -0.0711 0.1716 0.9826
vn -1.0000 -0.0000 -0.0000
vn -0.5475 0.1440 -0.8243
vn 0.0712 0.1718 -0.9826
vn -0.7217 -0.6922 -0.0000
vn -0.4310 0.9024 -0.0000
vn -0.5475 0.1440 0.8243
vn 0.0712 0.1718 0.9826
vn -0.7071 0.7071 -0.0000
vn -0.2854 0.4892 -0.8242
vn 0.1716 0.0711 -0.9826
vn -0.9998 0.0200 -0.0000
vn 0.3321 0.9432 -0.0000
vn -0.2854 0.4892 0.8242
vn 0.1716 0.0711 0.9826
vn -0.0000 1.0000 -0.0000
vn 0.1440 0.5475 -0.8243
vn 0.1718 -0.0712 -0.9826
vn -0.9238 0.3828 -0.0000
vn -0.6922 0.7217 -0.0000
vn 0.9024 0.4310 -0.0000
vn 0.9238 -0.3828 -0.0000
vn 0.1440 0.5475 0.8243
vn 0.1718 -0.0712 0.9826
vn 0.7071 0.7071 -0.0000
vt 0.250000 1.000000
vt 0.375000 1.000000
vt 0.375000 0.750000
vt 0.250000 0.750000
vt 0.250000 0.250000
vt 0.375000 0.250000
vt 0.375000 0.000000
vt 0.250000 0.000000
vt 0.250000 0.500000
vt 0.375000 0.500000
vt 0.875000 1.000000
vt 1.000000 1.000000
vt 1.000000 0.750000
vt 0.875000 0.750000
vt 0.875000 0.250000
vt 1.000000 0.250000
vt 1.000000 0.000000
vt 0.875000 0.000000
vt 0.875000 0.500000
vt 1.000000 0.500000
vt 0.000000 1.000000
vt 0.125000 1.000000
vt 0.125000 0.750000
vt 0.000000 0.750000
vt 0.000000 0.250000
vt 0.125000 0.250000
vt 0.125000 0.000000
vt 0.000000 0.000000
vt 0.000000 0.500000
vt 0.125000 0.500000
vt 0.500000 1.000000
vt 0.500000 0.750000
vt 0.500000 0.250000
vt 0.500000 0.000000
vt 0.500000 0.500000
vt 0.625000 1.000000
vt 0.625000 0.750000
vt 0.625000 0.250000
vt 0.625000 0.000000
vt 0.625000 0.500000
vt 0.750000 1.000000
vt 0.750000 0.750000
vt 0.750000 0.250000
vt 0.750000 0.000000
vt 0.750000 0.500000
s 1
usemtl Material.009
f 1/1/1 5/2/2 8/3/3 4/4/4
f 2/5/5 6/6/6 5/7/2 1/8/1
f 3/9/7 7/10/8 6/6/6 2/5/5
f 4/4/4 8/3/3 7/10/8 3/9/7
f 8/3/3 5/7/2 6/6/6 7/10/8
f 4/4/4 3/9/7 2/5/5 1/8/1
usemtl Material.005
f 13/11/9 9/12/10 12/13/11 16/14/12
f 14/15/13 10/16/14 9/17/10 13/18/9
f 15/19/15 11/20/16 10/16/14 14/15/13
f 16/14/12 12/13/11 11/20/16 15/19/15
s 0
f 10/16/17 9/17/17 12/13/17 11/20/17
s 1
f 16/14/12 15/19/15 14/15/13 13/18/9
usemtl Material.012
f 17/21/18 21/22/19 24/23/20 20/24/21
f 18/25/22 22/26/23 21/27/19 17/28/18
f 19/29/24 23/30/25 22/26/23 18/25/22
f 20/24/21 24/23/20 23/30/25 19/29/24
s 0
f 22/28/26 21/28/26 24/28/26 23/28/26
s 1
f 20/24/21 19/29/24 18/25/22 17/28/18
usemtl Material.010
f 25/22/27 29/1/28 32/4/29 28/23/30
f 26/26/31 30/5/32 29/8/28 25/27/27
f 27/30/33 31/9/34 30/5/32 26/26/31
f 28/23/30 32/4/29 31/9/34 27/30/33
s 0
f 30/28/35 29/28/35 32/28/35 31/28/35
s 1
f 28/23/30 27/30/33 26/26/31 25/27/27
usemtl Material.008
f 33/2/36 37/31/37 40/32/14 36/3/38
f 34/6/39 38/33/11 37/34/37 33/7/36
f 35/10/40 39/35/41 38/33/11 34/6/39
f 36/3/38 40/32/14 39/35/41 35/10/40
s 0
f 38/28/42 37/28/42 40/28/42 39/28/42
s 1
f 36/3/38 35/10/40 34/6/39 33/7/36
usemtl Material.007
f 41/31/43 45/36/44 48/37/23 44/32/45
f 42/33/46 46/38/20 45/39/44 41/34/43
f 43/35/47 47/40/48 46/38/20 42/33/46
f 44/32/45 48/37/23 47/40/48 43/35/47
s 0
f 46/38/49 45/39/49 48/37/49 47/40/49
s 1
f 44/32/45 43/35/47 42/33/46 41/34/43
usemtl Material.006
f 49/36/50 53/41/51 56/42/32 52/37/52
f 50/38/53 54/43/29 53/44/51 49/39/50
f 51/40/54 55/45/55 54/43/29 50/38/53
f 52/37/52 56/42/32 55/45/55 51/40/54
s 0
f 54/28/56 53/28/56 56/28/56 55/28/56
s 1
f 52/37/52 51/40/54 50/38/53 49/39/50
usemtl Material.004
f 57/41/57 61/11/58 64/14/59 60/42/60
f 58/43/61 62/15/62 61/18/58 57/44/57
f 59/45/63 63/19/64 62/15/62 58/43/61
f 60/42/60 64/14/59 63/19/64 59/45/63
s 0
f 62/28/65 61/28/65 64/28/65 63/28/65
s 1
f 60/42/60 59/45/63 58/43/61 57/44/57
