# Blender 4.5.9 LTS
# www.blender.org
mtllib ring_chunky_collision.mtl
o ring_chunky_collision
v -0.003481 -0.003481 -0.000492
v -0.003481 -0.003481 0.000492
v -0.003481 0.003481 -0.000492
v -0.003481 0.003481 0.000492
v 0.003481 -0.003481 -0.000492
v 0.003481 -0.003481 0.000492
v 0.003481 0.003481 -0.000492
v 0.003481 0.003481 0.000492
v -0.002571 0.002571 -0.000492
v 0.002571 -0.002571 -0.000492
v 0.002571 0.002571 -0.000492
v -0.002571 -0.002571 -0.000492
v -0.002571 0.002571 0.000492
v -0.002571 -0.002571 0.000492
v 0.002571 -0.002571 0.000492
v 0.002571 0.002571 0.000492
vn -0.0000 -1.0000 -0.0000
vn -0.0000 1.0000 -0.0000
vn -0.0000 -0.0000 -1.0000
vn -0.0000 -0.0000 1.0000
vn 1.0000 -0.0000 -0.0000
vn -1.0000 -0.0000 -0.0000
vt 0.625000 0.750000
vt 0.375000 1.000000
vt 0.375000 0.750000
vt 0.454825 1.000000
vt 0.545175 0.750000
vt 0.454825 0.750000
vt 0.625000 1.000000
vt 0.342335 0.717335
vt 0.157666 0.717335
vt 0.125000 0.750000
vt 0.875000 0.750000
vt 0.842334 0.717335
vt 0.657665 0.717335
vt 0.545175 1.000000
vt 0.625000 0.500000
vt 0.375000 0.500000
vt 0.342335 0.532665
vt 0.657665 0.532665
vt 0.545175 0.500000
vt 0.454825 0.500000
vt 0.625000 0.250000
vt 0.375000 0.250000
vt 0.454825 0.250000
vt 0.545175 0.250000
vt 0.125000 0.500000
vt 0.157666 0.532665
vt 0.842334 0.532665
vt 0.875000 0.500000
vt 0.625000 0.000000
vt 0.375000 0.000000
vt 0.454825 0.000000
vt 0.545175 0.000000
s 1
usemtl Material.166
f 6/1/1 1/2/1 5/3/1
f 12/4/2 15/5/2 10/6/2
f 6/1/1 2/7/1 1/2/1
f 10/8/3 5/3/3 12/9/3
f 5/3/3 1/10/3 12/9/3
f 2/11/4 6/1/4 14/12/4
f 6/1/4 15/13/4 14/12/4
f 12/4/2 14/14/2 15/5/2
usemtl Material.167
f 8/15/5 5/3/5 7/16/5
f 5/3/3 11/17/3 7/16/3
f 6/1/4 16/18/4 15/13/4
f 10/6/6 16/19/6 11/20/6
f 8/15/5 6/1/5 5/3/5
f 5/3/3 10/8/3 11/17/3
f 6/1/4 8/15/4 16/18/4
f 10/6/6 15/5/6 16/19/6
usemtl Material.168
f 4/21/2 7/16/2 3/22/2
f 9/23/1 16/19/1 13/24/1
f 4/21/2 8/15/2 7/16/2
f 3/25/3 7/16/3 9/26/3
f 7/16/3 11/17/3 9/26/3
f 13/27/4 16/18/4 8/15/4
f 13/27/4 8/15/4 4/28/4
f 9/23/1 11/20/1 16/19/1
usemtl Material.169
f 2/29/6 3/22/6 1/30/6
f 1/10/3 3/25/3 12/9/3
f 4/28/4 2/11/4 13/27/4
f 12/31/5 13/24/5 14/32/5
f 2/29/6 4/21/6 3/22/6
f 3/25/3 9/26/3 12/9/3
f 2/11/4 14/12/4 13/27/4
f 12/31/5 9/23/5 13/24/5
