# Blender 4.5.9 LTS
# www.blender.org
mtllib wire_collision_allchunks.mtl
o wire_collision_allchunks
v -0.078235 -0.000678 -0.002225
v -0.077649 -0.000161 -0.002206
v -0.078167 0.000425 -0.002192
v -0.078753 -0.000092 -0.002211
v -0.078284 -0.000748 0.001344
v -0.077698 -0.000231 0.001360
v -0.078215 0.000356 0.001359
v -0.078802 -0.000162 0.001343
v -0.078362 -0.000772 0.005412
v -0.077776 -0.000255 0.005422
v -0.078294 0.000332 0.005415
v -0.078880 -0.000186 0.005404
v -0.078425 -0.000761 0.009823
v -0.077838 -0.000243 0.009825
v -0.078356 0.000343 0.009818
v -0.078943 -0.000174 0.009817
v -0.000020 -0.000691 0.012293
v -0.000556 -0.000121 0.012295
v 0.000014 0.000415 0.012305
v 0.000550 -0.000155 0.012302
v -0.000030 -0.000644 0.007474
v -0.000566 -0.000074 0.007482
v 0.000004 0.000462 0.007483
v 0.000540 -0.000108 0.007476
v -0.000069 -0.000612 0.002669
v -0.000605 -0.000042 0.002674
v -0.000035 0.000494 0.002673
v 0.000501 -0.000076 0.002667
v -0.000088 -0.000601 -0.002027
v -0.000624 -0.000031 -0.002028
v -0.000054 0.000505 -0.002027
v 0.000482 -0.000065 -0.002026
v -0.000653 -0.000852 0.025832
v -0.001185 -0.000282 0.025774
v -0.000620 0.000253 0.025848
v -0.000087 -0.000317 0.025906
v -0.000283 -0.000801 0.021570
v -0.000817 -0.000231 0.021542
v -0.000249 0.000304 0.021586
v 0.000286 -0.000266 0.021613
v -0.000088 -0.000745 0.017024
v -0.000623 -0.000175 0.017015
v -0.000054 0.000360 0.017038
v 0.000482 -0.000210 0.017047
v -0.000020 -0.000691 0.012293
v -0.000556 -0.000121 0.012295
v 0.000014 0.000415 0.012305
v 0.000550 -0.000155 0.012302
v -0.002118 -0.000912 0.033109
v -0.002625 -0.000341 0.032940
v -0.002084 0.000193 0.033124
v -0.001577 -0.000378 0.033293
v -0.001249 -0.000892 0.029711
v -0.001774 -0.000321 0.029609
v -0.001215 0.000214 0.029727
v -0.000690 -0.000357 0.029830
v -0.000653 -0.000852 0.025832
v -0.001185 -0.000282 0.025774
v -0.000620 0.000253 0.025848
v -0.000087 -0.000317 0.025906
v -0.004877 -0.000872 0.038068
v -0.005241 -0.000304 0.037674
v -0.004837 0.000233 0.038074
v -0.004472 -0.000335 0.038468
v -0.003311 -0.000908 0.035928
v -0.003774 -0.000337 0.035660
v -0.003275 0.000197 0.035939
v -0.002812 -0.000374 0.036206
v -0.002118 -0.000912 0.033109
v -0.002625 -0.000341 0.032940
v -0.002084 0.000193 0.033124
v -0.001577 -0.000378 0.033293
v -0.009340 -0.000678 0.039918
v -0.009295 -0.000131 0.039361
v -0.009248 0.000425 0.039910
v -0.009293 -0.000122 0.040467
v -0.006865 -0.000798 0.039431
v -0.007055 -0.000236 0.038921
v -0.006817 0.000307 0.039431
v -0.006627 -0.000255 0.039941
v -0.004877 -0.000872 0.038068
v -0.005241 -0.000304 0.037674
v -0.004837 0.000233 0.038074
v -0.004472 -0.000335 0.038468
v -0.012198 -0.000337 0.039361
v -0.011872 0.000171 0.038863
v -0.011985 0.000749 0.039377
v -0.012312 0.000241 0.039875
v -0.009340 -0.000678 0.039918
v -0.009295 -0.000131 0.039361
v -0.009248 0.000425 0.039910
v -0.009293 -0.000122 0.040467
v -0.015608 0.001151 0.035415
v -0.014938 0.001525 0.035263
v -0.015219 0.002168 0.035609
v -0.015889 0.001794 0.035761
v -0.014245 0.000295 0.037783
v -0.013685 0.000733 0.037458
v -0.013913 0.001345 0.037888
v -0.014473 0.000907 0.038214
v -0.012198 -0.000337 0.039361
v -0.011872 0.000171 0.038863
v -0.011985 0.000749 0.039377
v -0.012312 0.000241 0.039875
v -0.016957 0.003292 0.029139
v -0.016241 0.003608 0.029159
v -0.016544 0.004280 0.029421
v -0.017260 0.003964 0.029401
v -0.016455 0.002168 0.032469
v -0.015749 0.002504 0.032429
v -0.016048 0.003166 0.032720
v -0.016753 0.002830 0.032760
v -0.015608 0.001151 0.035415
v -0.014938 0.001525 0.035263
v -0.015219 0.002168 0.035609
v -0.015889 0.001794 0.035761
v -0.017989 0.006746 0.018798
v -0.017280 0.007075 0.018778
v -0.017580 0.007740 0.019058
v -0.018290 0.007412 0.019078
v -0.017566 0.005638 0.022107
v -0.016850 0.005950 0.022136
v -0.017154 0.006624 0.022393
v -0.017870 0.006311 0.022364
v -0.017274 0.004468 0.025620
v -0.016557 0.004776 0.025661
v -0.016861 0.005451 0.025913
v -0.017579 0.005143 0.025872
v -0.016957 0.003292 0.029139
v -0.016241 0.003608 0.029159
v -0.016544 0.004280 0.029421
v -0.017260 0.003964 0.029401
v -0.019831 0.008542 0.013598
v -0.019244 0.008967 0.013302
v -0.019486 0.009586 0.013714
v -0.020072 0.009161 0.014010
v -0.018696 0.007733 0.015895
v -0.018014 0.008097 0.015772
v -0.018301 0.008746 0.016101
v -0.018983 0.008382 0.016224
v -0.017989 0.006746 0.018798
v -0.017280 0.007075 0.018778
v -0.017580 0.007740 0.019058
v -0.018290 0.007412 0.019078
v -0.021534 0.009117 0.012092
v -0.021179 0.009616 0.011605
v -0.021310 0.010200 0.012109
v -0.021664 0.009701 0.012596
v -0.019831 0.008542 0.013598
v -0.019244 0.008967 0.013302
v -0.019486 0.009586 0.013714
v -0.020072 0.009161 0.014010
v -0.023971 0.009415 0.011540
v -0.023938 0.009954 0.010974
v -0.023920 0.010520 0.011514
v -0.023953 0.009981 0.012080
v -0.021534 0.009117 0.012092
v -0.021179 0.009616 0.011605
v -0.021310 0.010200 0.012109
v -0.021664 0.009701 0.012596
v -0.026603 0.009341 0.012051
v -0.026897 0.009868 0.011553
v -0.026739 0.010439 0.012064
v -0.026445 0.009912 0.012562
v -0.023971 0.009415 0.011540
v -0.023938 0.009954 0.010974
v -0.023920 0.010520 0.011514
v -0.023953 0.009981 0.012080
v -0.029669 0.008061 0.015709
v -0.030331 0.008459 0.015587
v -0.030022 0.009083 0.015944
v -0.029360 0.008684 0.016066
v -0.028441 0.008866 0.013493
v -0.028989 0.009332 0.013184
v -0.028727 0.009928 0.013618
v -0.028179 0.009463 0.013926
v -0.026603 0.009341 0.012051
v -0.026897 0.009868 0.011553
v -0.026739 0.010439 0.012064
v -0.026445 0.009912 0.012562
v -0.030870 0.005764 0.021750
v -0.031576 0.006096 0.021802
v -0.031249 0.006747 0.022087
v -0.030543 0.006414 0.022036
v -0.030430 0.006999 0.018528
v -0.031127 0.007353 0.018521
v -0.030804 0.007995 0.018830
v -0.030107 0.007640 0.018837
v -0.029669 0.008061 0.015709
v -0.030331 0.008459 0.015587
v -0.030022 0.009083 0.015944
v -0.029360 0.008684 0.016066
v -0.031837 0.001864 0.031880
v -0.032535 0.002217 0.031879
v -0.032211 0.002859 0.032186
v -0.031513 0.002506 0.032187
v -0.031412 0.003113 0.028620
v -0.032119 0.003445 0.028674
v -0.031791 0.004096 0.028958
v -0.031085 0.003764 0.028904
v -0.031144 0.004441 0.025179
v -0.031852 0.004766 0.025249
v -0.031524 0.005420 0.025527
v -0.030816 0.005094 0.025457
v -0.030870 0.005764 0.021750
v -0.031576 0.006096 0.021802
v -0.031249 0.006747 0.022087
v -0.030543 0.006414 0.022036
v -0.033832 -0.000075 0.037107
v -0.034388 0.000387 0.036809
v -0.034122 0.000984 0.037237
v -0.033566 0.000523 0.037536
v -0.032585 0.000774 0.034772
v -0.033250 0.001169 0.034659
v -0.032940 0.001794 0.035011
v -0.032274 0.001399 0.035125
v -0.031837 0.001864 0.031880
v -0.032535 0.002217 0.031879
v -0.032211 0.002859 0.032186
v -0.031513 0.002506 0.032187
v -0.035759 -0.000592 0.038675
v -0.036063 -0.000066 0.038181
v -0.035901 0.000505 0.038689
v -0.035597 -0.000020 0.039183
v -0.033832 -0.000075 0.037107
v -0.034388 0.000387 0.036809
v -0.034122 0.000984 0.037237
v -0.033566 0.000523 0.037536
v -0.038464 -0.000679 0.039232
v -0.038482 -0.000131 0.038674
v -0.038500 0.000426 0.039223
v -0.038482 -0.000122 0.039780
v -0.035759 -0.000592 0.038675
v -0.036063 -0.000066 0.038181
v -0.035901 0.000505 0.038689
v -0.035597 -0.000020 0.039183
v -0.041061 -0.000762 0.038700
v -0.040897 -0.000199 0.038182
v -0.041196 0.000335 0.038669
v -0.041360 -0.000228 0.039187
v -0.038464 -0.000679 0.039232
v -0.038482 -0.000131 0.038674
v -0.038500 0.000426 0.039223
v -0.038482 -0.000122 0.039780
v -0.042865 -0.001251 0.037257
v -0.042597 -0.000661 0.036818
v -0.043145 -0.000190 0.037117
v -0.043413 -0.000779 0.037556
v -0.041061 -0.000762 0.038700
v -0.040897 -0.000199 0.038182
v -0.041196 0.000335 0.038669
v -0.041360 -0.000228 0.039187
v -0.044096 -0.002073 0.035047
v -0.043783 -0.001456 0.034683
v -0.044441 -0.001051 0.034803
v -0.044754 -0.001668 0.035168
v -0.042865 -0.001251 0.037257
v -0.042597 -0.000661 0.036818
v -0.043145 -0.000190 0.037117
v -0.043413 -0.000779 0.037556
v -0.046145 -0.007098 0.022234
v -0.045813 -0.006456 0.021934
v -0.046515 -0.006111 0.021898
v -0.046846 -0.006753 0.022198
v -0.045764 -0.005751 0.025644
v -0.045432 -0.005106 0.025353
v -0.046135 -0.004769 0.025297
v -0.046468 -0.005414 0.025588
v -0.045399 -0.004409 0.029045
v -0.045067 -0.003765 0.028748
v -0.045769 -0.003423 0.028706
v -0.046101 -0.004066 0.029003
v -0.044893 -0.003154 0.032245
v -0.044566 -0.002519 0.031926
v -0.045258 -0.002156 0.031937
v -0.045586 -0.002790 0.032256
v -0.044096 -0.002073 0.035047
v -0.043783 -0.001456 0.034683
v -0.044441 -0.001051 0.034803
v -0.044754 -0.001668 0.035168
v -0.047590 -0.009469 0.016144
v -0.047280 -0.008855 0.015771
v -0.047931 -0.008443 0.015908
v -0.048241 -0.009057 0.016281
v -0.046699 -0.008364 0.019005
v -0.046373 -0.007732 0.018680
v -0.047063 -0.007364 0.018703
v -0.047389 -0.007997 0.019028
v -0.046145 -0.007098 0.022234
v -0.045813 -0.006456 0.021934
v -0.046515 -0.006111 0.021898
v -0.046846 -0.006753 0.022198
v -0.048988 -0.010328 0.013839
v -0.048728 -0.009743 0.013390
v -0.049261 -0.009264 0.013706
v -0.049521 -0.009850 0.014155
v -0.047590 -0.009469 0.016144
v -0.047280 -0.008855 0.015771
v -0.047931 -0.008443 0.015908
v -0.048241 -0.009057 0.016281
v -0.051066 -0.010850 0.012301
v -0.050911 -0.010289 0.011778
v -0.051194 -0.009751 0.012271
v -0.051350 -0.010312 0.012793
v -0.048988 -0.010328 0.013839
v -0.048728 -0.009743 0.013390
v -0.049261 -0.009264 0.013706
v -0.049521 -0.009850 0.014155
v -0.053958 -0.010938 0.011753
v -0.053940 -0.010382 0.011203
v -0.053911 -0.009832 0.011759
v -0.053929 -0.010388 0.012309
v -0.051066 -0.010850 0.012301
v -0.050911 -0.010289 0.011778
v -0.051194 -0.009751 0.012271
v -0.051350 -0.010312 0.012793
v -0.056678 -0.010621 0.012327
v -0.056803 -0.010049 0.011808
v -0.056473 -0.009534 0.012297
v -0.056347 -0.010107 0.012815
v -0.053958 -0.010938 0.011753
v -0.053940 -0.010382 0.011203
v -0.053911 -0.009832 0.011759
v -0.053929 -0.010388 0.012309
v -0.058658 -0.010008 0.013884
v -0.058895 -0.009402 0.013449
v -0.058339 -0.008955 0.013769
v -0.058103 -0.009560 0.014205
v -0.056678 -0.010621 0.012327
v -0.056803 -0.010049 0.011808
v -0.056473 -0.009534 0.012297
v -0.056347 -0.010107 0.012815
v -0.060039 -0.009164 0.016208
v -0.060327 -0.008530 0.015851
v -0.059667 -0.008141 0.016011
v -0.059380 -0.008775 0.016368
v -0.058658 -0.010008 0.013884
v -0.058895 -0.009402 0.013449
v -0.058339 -0.008955 0.013769
v -0.058103 -0.009560 0.014205
v -0.060981 -0.008150 0.019092
v -0.061286 -0.007499 0.018784
v -0.060591 -0.007145 0.018844
v -0.060286 -0.007796 0.019152
v -0.060039 -0.009164 0.016208
v -0.060327 -0.008530 0.015851
v -0.059667 -0.008141 0.016011
v -0.059380 -0.008775 0.016368
v -0.063448 -0.003517 0.032445
v -0.063750 -0.002869 0.032127
v -0.063059 -0.002510 0.032201
v -0.062757 -0.003158 0.032519
v -0.062729 -0.004649 0.029216
v -0.063038 -0.003991 0.028927
v -0.062333 -0.003652 0.028944
v -0.062024 -0.004310 0.029233
v -0.062176 -0.005837 0.025785
v -0.062487 -0.005175 0.025507
v -0.061779 -0.004843 0.025504
v -0.061468 -0.005505 0.025782
v -0.061643 -0.007023 0.022347
v -0.061953 -0.006363 0.022063
v -0.061247 -0.006026 0.022073
v -0.060937 -0.006686 0.022357
v -0.060981 -0.008150 0.019092
v -0.061286 -0.007499 0.018784
v -0.060591 -0.007145 0.018844
v -0.060286 -0.007796 0.019152
v -0.064477 -0.002498 0.035280
v -0.064758 -0.001870 0.034908
v -0.064108 -0.001473 0.035088
v -0.063827 -0.002101 0.035460
v -0.063448 -0.003517 0.032445
v -0.063750 -0.002869 0.032127
v -0.063059 -0.002510 0.032201
v -0.062757 -0.003158 0.032519
v -0.065952 -0.001651 0.037526
v -0.066176 -0.001053 0.037074
v -0.065639 -0.000596 0.037412
v -0.065414 -0.001194 0.037864
v -0.064477 -0.002498 0.035280
v -0.064758 -0.001870 0.034908
v -0.064108 -0.001473 0.035088
v -0.063827 -0.002101 0.035460
v -0.068012 -0.001028 0.039008
v -0.068124 -0.000463 0.038478
v -0.067808 0.000058 0.038968
v -0.067696 -0.000507 0.039497
v -0.065952 -0.001651 0.037526
v -0.066176 -0.001053 0.037074
v -0.065639 -0.000596 0.037412
v -0.065414 -0.001194 0.037864
v -0.070833 -0.000677 0.039558
v -0.070766 -0.000138 0.038995
v -0.070734 0.000424 0.039538
v -0.070802 -0.000115 0.040100
v -0.068012 -0.001028 0.039008
v -0.068124 -0.000463 0.038478
v -0.067808 0.000058 0.038968
v -0.067696 -0.000507 0.039497
v -0.072931 -0.000567 0.038999
v -0.072629 -0.000044 0.038502
v -0.072865 0.000537 0.038970
v -0.073167 0.000014 0.039467
v -0.070833 -0.000677 0.039558
v -0.070766 -0.000138 0.038995
v -0.070734 0.000424 0.039538
v -0.070802 -0.000115 0.040100
v -0.074623 -0.000509 0.037391
v -0.074149 0.000008 0.037043
v -0.074556 0.000595 0.037362
v -0.075030 0.000078 0.037709
v -0.072931 -0.000567 0.038999
v -0.072629 -0.000044 0.038502
v -0.072865 0.000537 0.038970
v -0.073167 0.000014 0.039467
v -0.075937 -0.000494 0.034890
v -0.075393 0.000022 0.034667
v -0.075870 0.000610 0.034862
v -0.076414 0.000094 0.035085
v -0.074623 -0.000509 0.037391
v -0.074149 0.000008 0.037043
v -0.074556 0.000595 0.037362
v -0.075030 0.000078 0.037709
v -0.076919 -0.000512 0.031652
v -0.076348 0.000004 0.031510
v -0.076851 0.000592 0.031626
v -0.077421 0.000076 0.031769
v -0.075937 -0.000494 0.034890
v -0.075393 0.000022 0.034667
v -0.075870 0.000610 0.034862
v -0.076414 0.000094 0.035085
v -0.078322 -0.000670 0.019064
v -0.077736 -0.000152 0.019035
v -0.078253 0.000434 0.019048
v -0.078839 -0.000083 0.019078
v -0.078066 -0.000610 0.023585
v -0.077481 -0.000093 0.023530
v -0.077998 0.000494 0.023565
v -0.078582 -0.000023 0.023619
v -0.077613 -0.000554 0.027832
v -0.077033 -0.000038 0.027742
v -0.077545 0.000550 0.027809
v -0.078126 0.000033 0.027899
v -0.076919 -0.000512 0.031652
v -0.076348 0.000004 0.031510
v -0.076851 0.000592 0.031626
v -0.077421 0.000076 0.031769
v -0.078425 -0.000761 0.009823
v -0.077838 -0.000243 0.009825
v -0.078356 0.000343 0.009818
v -0.078943 -0.000174 0.009817
v -0.078426 -0.000723 0.014426
v -0.077840 -0.000206 0.014414
v -0.078358 0.000381 0.014414
v -0.078944 -0.000137 0.014426
v -0.078322 -0.000670 0.019064
v -0.077736 -0.000152 0.019035
v -0.078253 0.000434 0.019048
v -0.078839 -0.000083 0.019078
vn -0.0580 -0.9981 -0.0203
vn 0.9977 -0.0662 0.0123
vn 0.0656 0.9976 0.0204
vn -0.9982 0.0579 -0.0125
vn -0.0604 -0.9981 -0.0137
vn 0.9978 -0.0651 0.0156
vn 0.0633 0.9979 0.0138
vn -0.9981 0.0591 -0.0157
vn -0.0631 -0.9980 -0.0027
vn 0.9978 -0.0641 0.0166
vn 0.0610 0.9981 0.0027
vn -0.9981 0.0601 -0.0166
vn -0.0651 -0.9979 0.0017
vn 0.9979 -0.0635 0.0143
vn 0.0591 0.9983 -0.0018
vn -0.9981 0.0607 -0.0143
vn -0.0269 -0.9996 -0.0096
vn -0.9995 0.0311 0.0024
vn 0.0343 0.9994 0.0096
vn 0.9995 -0.0300 -0.0024
vn -0.0292 -0.9995 -0.0080
vn -0.9995 0.0313 0.0054
vn 0.0319 0.9995 0.0080
vn 0.9995 -0.0298 -0.0054
vn -0.0315 -0.9995 -0.0043
vn -0.9995 0.0315 0.0063
vn 0.0296 0.9996 0.0043
vn 0.9995 -0.0296 -0.0062
vn -0.0331 -0.9994 -0.0022
vn -0.9995 0.0317 0.0042
vn 0.0280 0.9996 0.0022
vn 0.9996 -0.0294 -0.0042
vn -0.0158 -0.9998 -0.0133
vn -0.9958 0.0316 -0.0862
vn 0.0451 0.9989 0.0159
vn 0.9958 -0.0316 0.0863
vn -0.0206 -0.9997 -0.0135
vn -0.9974 0.0316 -0.0643
vn 0.0403 0.9991 0.0148
vn 0.9974 -0.0311 0.0644
vn -0.0242 -0.9996 -0.0126
vn -0.9991 0.0313 -0.0282
vn 0.0369 0.9992 0.0130
vn 0.9991 -0.0305 0.0282
vn -0.0269 -0.9996 -0.0119
vn -0.9994 0.0313 -0.0140
vn 0.0343 0.9993 0.0121
vn 0.9994 -0.0302 0.0140
vn 0.0021 -1.0000 -0.0055
vn -0.9684 0.0326 -0.2474
vn 0.0632 0.9977 0.0224
vn 0.9683 -0.0336 0.2477
vn -0.0089 -0.9999 -0.0099
vn -0.9793 0.0326 -0.1996
vn 0.0521 0.9985 0.0188
vn 0.9793 -0.0329 0.1998
vn -0.0158 -0.9998 -0.0125
vn -0.9880 0.0323 -0.1513
vn 0.0450 0.9988 0.0170
vn 0.9879 -0.0323 0.1514
vn 0.0280 -0.9989 0.0382
vn -0.8070 0.0301 -0.5898
vn 0.0947 0.9941 0.0536
vn 0.8060 -0.0335 0.5910
vn 0.0126 -0.9998 0.0164
vn -0.8695 0.0318 -0.4929
vn 0.0772 0.9964 0.0359
vn 0.8689 -0.0338 0.4938
vn -0.0002 -1.0000 0.0018
vn -0.9206 0.0329 -0.3892
vn 0.0623 0.9977 0.0252
vn 0.9203 -0.0340 0.3898
vn -0.0303 -0.9954 0.0904
vn -0.1935 -0.0090 -0.9811
vn 0.0645 0.9946 0.0817
vn 0.1923 -0.0232 0.9811
vn -0.0084 -0.9964 0.0841
vn -0.3870 0.0137 -0.9220
vn 0.0779 0.9935 0.0832
vn 0.3863 -0.0183 0.9222
vn 0.0042 -0.9981 0.0617
vn -0.5652 0.0225 -0.8246
vn 0.0817 0.9944 0.0664
vn 0.5639 -0.0259 0.8254
vn -0.1392 -0.9842 0.1094
vn 0.1832 -0.0602 -0.9812
vn 0.0994 0.9909 0.0904
vn -0.1930 -0.0082 0.9812
vn -0.1364 -0.9862 0.0938
vn 0.1854 -0.0425 -0.9818
vn 0.1018 0.9917 0.0783
vn -0.1908 0.0107 0.9816
vn -0.3757 -0.9196 -0.1150
vn 0.8086 -0.2244 -0.5439
vn 0.2965 0.9397 0.1706
vn -0.8188 0.1924 0.5409
vn -0.3546 -0.9341 -0.0408
vn 0.7033 -0.1878 -0.6856
vn 0.2403 0.9585 0.1532
vn -0.7191 0.1334 0.6819
vn -0.3160 -0.9482 0.0315
vn 0.5777 -0.1415 -0.8039
vn 0.1987 0.9710 0.1332
vn -0.5938 0.0743 0.8012
vn -0.3825 -0.8914 -0.2432
vn 0.9162 -0.3172 -0.2449
vn 0.3605 0.8988 0.2493
vn -0.9192 0.3098 0.2432
vn -0.3914 -0.8937 -0.2195
vn 0.9042 -0.3036 -0.3005
vn 0.3438 0.9090 0.2357
vn -0.9107 0.2871 0.2969
vn -0.4073 -0.8931 -0.1909
vn 0.8882 -0.2914 -0.3553
vn 0.3198 0.9201 0.2263
vn -0.9002 0.2605 0.3490
vn -0.3516 -0.9003 -0.2566
vn 0.9233 -0.3128 -0.2228
vn 0.3929 0.8859 0.2464
vn -0.9174 0.3271 0.2267
vn -0.3648 -0.8940 -0.2602
vn 0.9237 -0.3235 -0.2055
vn 0.3811 0.8883 0.2564
vn -0.9213 0.3292 0.2070
vn -0.3749 -0.8887 -0.2639
vn 0.9238 -0.3319 -0.1908
vn 0.3722 0.8897 0.2645
vn -0.9241 0.3312 0.1906
vn -0.3846 -0.8854 -0.2610
vn 0.9222 -0.3341 -0.1948
vn 0.3624 0.8934 0.2657
vn -0.9252 0.3268 0.1927
vn -0.2769 -0.9408 -0.1954
vn 0.8479 -0.1990 -0.4915
vn 0.4106 0.9047 0.1135
vn -0.8297 0.2520 0.4982
vn -0.3164 -0.9260 -0.2058
vn 0.8806 -0.2437 -0.4064
vn 0.3941 0.9036 0.1679
vn -0.8698 0.2731 0.4108
vn -0.3460 -0.9107 -0.2259
vn 0.9060 -0.2810 -0.3166
vn 0.3865 0.8979 0.2108
vn -0.9003 0.2957 0.3195
vn -0.2035 -0.9687 -0.1422
vn 0.6408 -0.0888 -0.7626
vn 0.3383 0.9407 -0.0264
vn -0.6229 0.1621 0.7653
vn -0.2210 -0.9676 -0.1220
vn 0.6381 -0.0991 -0.7635
vn 0.3211 0.9470 -0.0045
vn -0.6255 0.1536 0.7650
vn -0.1035 -0.9918 -0.0745
vn 0.2220 -0.0023 -0.9750
vn 0.1457 0.9834 -0.1082
vn -0.2117 0.0717 0.9747
vn -0.1001 -0.9910 -0.0892
vn 0.2224 0.0008 -0.9750
vn 0.1489 0.9811 -0.1233
vn -0.2114 0.0737 0.9746
vn 0.0116 -0.9966 -0.0822
vn -0.1924 0.0249 -0.9810
vn -0.0529 0.9909 -0.1235
vn 0.1884 0.0611 0.9802
vn 0.0136 -0.9973 -0.0720
vn -0.1922 0.0165 -0.9812
vn -0.0506 0.9924 -0.1117
vn 0.1886 0.0538 0.9806
vn 0.2614 -0.9444 -0.1996
vn -0.8396 -0.1494 -0.5222
vn -0.3415 0.9284 0.1461
vn 0.8288 0.1880 0.5270
vn 0.1944 -0.9657 -0.1720
vn -0.7392 -0.0882 -0.6677
vn -0.3143 0.9475 0.0591
vn 0.7224 0.1562 0.6736
vn 0.1432 -0.9795 -0.1415
vn -0.6105 -0.0296 -0.7915
vn -0.2672 0.9633 -0.0264
vn 0.5950 0.1143 0.7956
vn 0.3313 -0.8952 -0.2979
vn -0.9329 -0.2747 -0.2328
vn -0.3515 0.8893 0.2926
vn 0.9299 0.2829 0.2352
vn 0.3142 -0.9068 -0.2812
vn -0.9260 -0.2499 -0.2831
vn -0.3604 0.8939 0.2664
vn 0.9190 0.2690 0.2883
vn 0.2890 -0.9189 -0.2686
vn -0.9173 -0.2205 -0.3316
vn -0.3771 0.8958 0.2351
vn 0.9041 0.2576 0.3411
vn 0.3642 -0.8846 -0.2915
vn -0.9286 -0.2896 -0.2318
vn -0.3193 0.8980 0.3027
vn 0.9355 0.2715 0.2260
vn 0.3520 -0.8854 -0.3038
vn -0.9330 -0.2926 -0.2095
vn -0.3332 0.8911 0.3081
vn 0.9359 0.2850 0.2070
vn 0.3431 -0.8851 -0.3144
vn -0.9364 -0.2963 -0.1882
vn -0.3438 0.8849 0.3143
vn 0.9363 0.2966 0.1883
vn 0.3332 -0.8883 -0.3161
vn -0.9378 -0.2921 -0.1877
vn -0.3536 0.8819 0.3119
vn 0.9347 0.3001 0.1905
vn 0.3736 -0.9180 -0.1331
vn -0.8315 -0.2055 -0.5160
vn -0.2353 0.9466 0.2204
vn 0.8512 0.1399 0.5059
vn 0.3608 -0.9118 -0.1962
vn -0.8760 -0.2278 -0.4251
vn -0.2782 0.9307 0.2374
vn 0.8881 0.1907 0.4182
vn 0.3558 -0.9012 -0.2474
vn -0.9098 -0.2523 -0.3295
vn -0.3119 0.9127 0.2640
vn 0.9163 0.2337 0.3251
vn 0.2752 -0.9611 0.0232
vn -0.6088 -0.1192 -0.7843
vn -0.1462 0.9785 0.1455
vn 0.6249 0.0329 0.7800
vn 0.2611 -0.9653 0.0045
vn -0.6108 -0.1108 -0.7840
vn -0.1600 0.9787 0.1285
vn 0.6229 0.0431 0.7811
vn 0.0537 -0.9932 0.1030
vn -0.1995 -0.0175 -0.9797
vn -0.0142 0.9969 0.0777
vn 0.2019 0.0168 0.9793
vn 0.0574 -0.9909 0.1213
vn -0.1980 -0.0601 -0.9783
vn -0.0122 0.9961 0.0876
vn 0.2033 -0.0273 0.9787
vn 0.0108 -0.9947 0.1019
vn 0.1983 0.0431 -0.9792
vn -0.0553 0.9930 0.1041
vn -0.2031 0.0413 0.9783
vn 0.0126 -0.9955 0.0934
vn 0.1997 0.0011 -0.9799
vn -0.0519 0.9948 0.0873
vn -0.2018 -0.0020 0.9794
vn 0.1542 -0.9781 0.1398
vn 0.6066 0.0939 -0.7894
vn -0.2524 0.9676 -0.0087
vn -0.6177 -0.0289 0.7859
vn 0.1403 -0.9776 0.1570
vn 0.6047 0.1023 -0.7899
vn -0.2665 0.9638 0.0103
vn -0.6195 -0.0188 0.7847
vn 0.2564 -0.9436 0.2095
vn 0.8310 0.1754 -0.5280
vn -0.3332 0.9295 -0.1582
vn -0.8409 -0.1390 0.5231
vn 0.2277 -0.9470 0.2268
vn 0.8268 0.1878 -0.5302
vn -0.3623 0.9216 -0.1391
vn -0.8450 -0.1247 0.5200
vn 0.3463 -0.8851 0.3108
vn 0.9379 0.2739 -0.2129
vn -0.3248 0.8915 -0.3158
vn -0.9348 -0.2821 0.2157
vn 0.3364 -0.8879 0.3137
vn 0.9366 0.2785 -0.2125
vn -0.3348 0.8884 -0.3141
vn -0.9364 -0.2790 0.2127
vn 0.3256 -0.8938 0.3085
vn 0.9330 0.2752 -0.2320
vn -0.3436 0.8886 -0.3039
vn -0.9357 -0.2680 0.2296
vn 0.3076 -0.9077 0.2854
vn 0.9190 0.2541 -0.3015
vn -0.3511 0.8963 -0.2708
vn -0.9253 -0.2363 0.2965
vn 0.2829 -0.9191 0.2743
vn 0.9043 0.2432 -0.3510
vn -0.3672 0.8983 -0.2414
vn -0.9164 -0.2082 0.3418
vn 0.3671 -0.9005 0.2331
vn 0.9109 0.1999 -0.3609
vn -0.2790 0.9217 -0.2696
vn -0.8984 -0.2363 0.3701
vn 0.3517 -0.8979 0.2647
vn 0.9221 0.2297 -0.3114
vn -0.3044 0.9100 -0.2814
vn -0.9153 -0.2489 0.3166
vn 0.3436 -0.8929 0.2912
vn 0.9312 0.2553 -0.2601
vn -0.3223 0.8987 -0.2974
vn -0.9282 -0.2636 0.2626
vn 0.3559 -0.9257 0.1281
vn 0.8297 0.1143 -0.5464
vn -0.2228 0.9496 -0.2206
vn -0.8119 -0.1775 0.5562
vn 0.3289 -0.9328 0.1471
vn 0.8259 0.1279 -0.5492
vn -0.2496 0.9468 -0.2034
vn -0.8157 -0.1658 0.5542
vn 0.2521 -0.9676 -0.0138
vn 0.5926 0.0126 -0.8054
vn -0.1358 0.9792 -0.1505
vn -0.5788 -0.0921 0.8102
vn 0.2414 -0.9704 0.0017
vn 0.5912 0.0206 -0.8062
vn -0.1464 0.9798 -0.1365
vn -0.5803 -0.0855 0.8099
vn 0.0476 -0.9949 -0.0894
vn 0.1870 -0.0316 -0.9819
vn -0.0131 0.9962 -0.0861
vn -0.1838 -0.0336 0.9824
vn 0.0498 -0.9936 -0.1015
vn 0.1872 -0.0399 -0.9815
vn -0.0111 0.9953 -0.0966
vn -0.1836 -0.0408 0.9822
vn -0.1360 -0.9858 -0.0986
vn -0.2083 -0.0166 -0.9779
vn 0.0938 0.9906 -0.0993
vn 0.1995 -0.0502 0.9786
vn -0.1338 -0.9872 -0.0870
vn -0.2081 -0.0151 -0.9780
vn 0.0963 0.9915 -0.0879
vn 0.1996 -0.0495 0.9786
vn -0.2941 -0.9558 0.0009
vn -0.6024 0.0714 -0.7950
vn 0.2033 0.9709 -0.1263
vn 0.5915 -0.1220 0.7970
vn -0.3078 -0.9513 -0.0183
vn -0.6044 0.0631 -0.7942
vn 0.1894 0.9713 -0.1441
vn 0.5897 -0.1289 0.7973
vn -0.3579 -0.9257 0.1226
vn -0.8167 0.1757 -0.5497
vn 0.2857 0.9424 -0.1740
vn 0.8080 -0.2048 0.5525
vn -0.3838 -0.9175 0.1042
vn -0.8202 0.1649 -0.5478
vn 0.2598 0.9466 -0.1910
vn 0.8046 -0.2142 0.5539
vn -0.3687 -0.9081 0.1984
vn -0.8929 0.2450 -0.3779
vn 0.3276 0.9196 -0.2167
vn 0.8875 -0.2598 0.3806
vn -0.3879 -0.9019 0.1900
vn -0.8954 0.2380 -0.3763
vn 0.3084 0.9244 -0.2246
vn 0.8850 -0.2662 0.3820
vn -0.3321 -0.9107 0.2454
vn -0.9086 0.2873 -0.3030
vn 0.3799 0.8961 -0.2294
vn 0.9146 -0.2720 0.2992
vn -0.3464 -0.9045 0.2488
vn -0.9154 0.2920 -0.2772
vn 0.3685 0.8976 -0.2420
vn 0.9180 -0.2851 0.2755
vn -0.3578 -0.8986 0.2540
vn -0.9215 0.2983 -0.2488
vn 0.3602 0.8978 -0.2533
vn 0.9216 -0.2979 0.2487
vn -0.3665 -0.8977 0.2446
vn -0.9199 0.2893 -0.2647
vn 0.3493 0.9031 -0.2497
vn 0.9175 -0.2954 0.2663
vn -0.3778 -0.8960 0.2335
vn -0.9179 0.2782 -0.2830
vn 0.3355 0.9091 -0.2469
vn 0.9122 -0.2927 0.2866
vn -0.3043 -0.9262 0.2227
vn -0.8756 0.2560 -0.4096
vn 0.3881 0.9032 -0.1832
vn 0.8861 -0.2274 0.4040
vn -0.3232 -0.9218 0.2143
vn -0.8780 0.2499 -0.4083
vn 0.3692 0.9093 -0.1922
vn 0.8836 -0.2342 0.4055
vn -0.2568 -0.9477 0.1896
vn -0.7835 0.1984 -0.5889
vn 0.3774 0.9209 -0.0978
vn 0.7983 -0.1510 0.5831
vn -0.2797 -0.9443 0.1733
vn -0.7864 0.1901 -0.5877
vn 0.3546 0.9279 -0.1155
vn 0.7952 -0.1606 0.5847
vn -0.1905 -0.9710 0.1444
vn -0.5582 0.1107 -0.8223
vn 0.2962 0.9551 0.0123
vn 0.5716 -0.0512 0.8189
vn -0.2003 -0.9710 0.1308
vn -0.5595 0.1057 -0.8220
vn 0.2865 0.9581 -0.0024
vn 0.5702 -0.0572 0.8195
vn -0.1005 -0.9879 0.1182
vn -0.1894 0.0167 -0.9818
vn 0.1394 0.9866 0.0843
vn 0.1924 0.0109 0.9813
vn -0.1023 -0.9888 0.1090
vn -0.1874 0.0330 -0.9817
vn 0.1383 0.9873 0.0784
vn 0.1943 0.0274 0.9806
vn -0.0887 -0.9869 0.1348
vn 0.2544 -0.0396 -0.9663
vn 0.0289 0.9959 0.0862
vn -0.2557 0.0397 0.9660
vn -0.0856 -0.9887 0.1229
vn 0.2552 -0.0256 -0.9666
vn 0.0314 0.9965 0.0771
vn -0.2548 0.0532 0.9655
vn -0.1092 -0.9906 0.0820
vn 0.6884 -0.0604 -0.7228
vn 0.0095 0.9995 0.0294
vn -0.6854 0.0598 0.7257
vn -0.1357 -0.9846 0.1101
vn 0.6885 -0.0601 -0.7228
vn -0.0175 0.9982 0.0577
vn -0.6854 0.0601 0.7257
vn -0.0977 -0.9941 0.0464
vn 0.8836 -0.0655 -0.4637
vn 0.0226 0.9997 -0.0049
vn -0.8828 0.0648 0.4653
vn -0.1248 -0.9903 0.0607
vn 0.8836 -0.0654 -0.4637
vn -0.0049 0.9999 0.0095
vn -0.8828 0.0649 0.4653
vn -0.0854 -0.9958 0.0318
vn 0.9551 -0.0656 -0.2890
vn 0.0362 0.9992 -0.0164
vn -0.9550 0.0647 0.2895
vn -0.1015 -0.9942 0.0367
vn 0.9551 -0.0655 -0.2890
vn 0.0200 0.9997 -0.0115
vn -0.9550 0.0648 0.2895
vn -0.0695 -0.9974 0.0171
vn 0.9964 -0.0636 -0.0556
vn 0.0544 0.9984 -0.0162
vn -0.9965 0.0619 0.0556
vn -0.0729 -0.9972 0.0191
vn 0.9947 -0.0638 -0.0803
vn 0.0507 0.9986 -0.0173
vn -0.9948 0.0624 0.0803
vn -0.0778 -0.9967 0.0233
vn 0.9878 -0.0644 -0.1414
vn 0.0451 0.9988 -0.0185
vn -0.9879 0.0633 0.1416
vn -0.0866 -0.9959 0.0268
vn 0.9819 -0.0647 -0.1778
vn 0.0360 0.9992 -0.0175
vn -0.9820 0.0638 0.1779
vn -0.0652 -0.9978 0.0081
vn 0.9980 -0.0636 0.0009
vn 0.0591 0.9982 -0.0081
vn -0.9982 0.0607 -0.0008
vn -0.0672 -0.9977 0.0106
vn 0.9979 -0.0633 -0.0104
vn 0.0570 0.9983 -0.0105
vn -0.9981 0.0612 0.0105
vn -0.0697 -0.9975 0.0131
vn 0.9978 -0.0632 -0.0218
vn 0.0545 0.9984 -0.0127
vn -0.9979 0.0615 0.0218
vt 0.000000 1.000000
vt 0.013889 1.000000
vt 0.013889 0.750000
vt 0.000000 0.750000
vt 0.000000 0.250000
vt 0.013889 0.250000
vt 0.013889 0.000000
vt 0.000000 0.000000
vt 0.000000 0.500000
vt 0.013889 0.500000
vt 0.027778 1.000000
vt 0.027778 0.750000
vt 0.027778 0.250000
vt 0.027778 0.000000
vt 0.027778 0.500000
vt 0.041667 1.000000
vt 0.041667 0.750000
vt 0.041667 0.250000
vt 0.041667 0.000000
vt 0.041667 0.500000
vt 0.958333 1.000000
vt 0.972222 1.000000
vt 0.972222 0.750000
vt 0.958333 0.750000
vt 0.958333 0.250000
vt 0.972222 0.250000
vt 0.972222 0.000000
vt 0.958333 0.000000
vt 0.958333 0.500000
vt 0.972222 0.500000
vt 0.986111 1.000000
vt 0.986111 0.750000
vt 0.986111 0.250000
vt 0.986111 0.000000
vt 0.986111 0.500000
vt 1.000000 1.000000
vt 1.000000 0.750000
vt 1.000000 0.250000
vt 1.000000 0.000000
vt 1.000000 0.500000
vt 0.916667 1.000000
vt 0.930556 1.000000
vt 0.930556 0.750000
vt 0.916667 0.750000
vt 0.916667 0.250000
vt 0.930556 0.250000
vt 0.930556 0.000000
vt 0.916667 0.000000
vt 0.916667 0.500000
vt 0.930556 0.500000
vt 0.944444 1.000000
vt 0.944444 0.750000
vt 0.944444 0.250000
vt 0.944444 0.000000
vt 0.944444 0.500000
vt 0.888889 1.000000
vt 0.902778 1.000000
vt 0.902778 0.750000
vt 0.888889 0.750000
vt 0.888889 0.250000
vt 0.902778 0.250000
vt 0.902778 0.000000
vt 0.888889 0.000000
vt 0.888889 0.500000
vt 0.902778 0.500000
vt 0.861111 1.000000
vt 0.875000 1.000000
vt 0.875000 0.750000
vt 0.861111 0.750000
vt 0.861111 0.250000
vt 0.875000 0.250000
vt 0.875000 0.000000
vt 0.861111 0.000000
vt 0.861111 0.500000
vt 0.875000 0.500000
vt 0.833333 1.000000
vt 0.847222 1.000000
vt 0.847222 0.750000
vt 0.833333 0.750000
vt 0.833333 0.250000
vt 0.847222 0.250000
vt 0.847222 0.000000
vt 0.833333 0.000000
vt 0.833333 0.500000
vt 0.847222 0.500000
vt 0.819444 1.000000
vt 0.819444 0.750000
vt 0.819444 0.250000
vt 0.819444 0.000000
vt 0.819444 0.500000
vt 0.791667 1.000000
vt 0.805556 1.000000
vt 0.805556 0.750000
vt 0.791667 0.750000
vt 0.791667 0.250000
vt 0.805556 0.250000
vt 0.805556 0.000000
vt 0.791667 0.000000
vt 0.791667 0.500000
vt 0.805556 0.500000
vt 0.763889 1.000000
vt 0.777778 1.000000
vt 0.777778 0.750000
vt 0.763889 0.750000
vt 0.763889 0.250000
vt 0.777778 0.250000
vt 0.777778 0.000000
vt 0.763889 0.000000
vt 0.763889 0.500000
vt 0.777778 0.500000
vt 0.722222 1.000000
vt 0.736111 1.000000
vt 0.736111 0.750000
vt 0.722222 0.750000
vt 0.722222 0.250000
vt 0.736111 0.250000
vt 0.736111 0.000000
vt 0.722222 0.000000
vt 0.722222 0.500000
vt 0.736111 0.500000
vt 0.750000 1.000000
vt 0.750000 0.750000
vt 0.750000 0.250000
vt 0.750000 0.000000
vt 0.750000 0.500000
vt 0.694444 1.000000
vt 0.708333 1.000000
vt 0.708333 0.750000
vt 0.694444 0.750000
vt 0.694444 0.250000
vt 0.708333 0.250000
vt 0.708333 0.000000
vt 0.694444 0.000000
vt 0.694444 0.500000
vt 0.708333 0.500000
vt 0.680556 1.000000
vt 0.680556 0.750000
vt 0.680556 0.250000
vt 0.680556 0.000000
vt 0.680556 0.500000
vt 0.666667 1.000000
vt 0.666667 0.750000
vt 0.666667 0.250000
vt 0.666667 0.000000
vt 0.666667 0.500000
vt 0.652778 1.000000
vt 0.652778 0.750000
vt 0.652778 0.250000
vt 0.652778 0.000000
vt 0.652778 0.500000
vt 0.625000 1.000000
vt 0.638889 1.000000
vt 0.638889 0.750000
vt 0.625000 0.750000
vt 0.625000 0.250000
vt 0.638889 0.250000
vt 0.638889 0.000000
vt 0.625000 0.000000
vt 0.625000 0.500000
vt 0.638889 0.500000
vt 0.597222 1.000000
vt 0.611111 1.000000
vt 0.611111 0.750000
vt 0.597222 0.750000
vt 0.597222 0.250000
vt 0.611111 0.250000
vt 0.611111 0.000000
vt 0.597222 0.000000
vt 0.597222 0.500000
vt 0.611111 0.500000
vt 0.555556 1.000000
vt 0.569444 1.000000
vt 0.569444 0.750000
vt 0.555556 0.750000
vt 0.555556 0.250000
vt 0.569444 0.250000
vt 0.569444 0.000000
vt 0.555556 0.000000
vt 0.555556 0.500000
vt 0.569444 0.500000
vt 0.583333 1.000000
vt 0.583333 0.750000
vt 0.583333 0.250000
vt 0.583333 0.000000
vt 0.583333 0.500000
vt 0.527778 1.000000
vt 0.541667 1.000000
vt 0.541667 0.750000
vt 0.527778 0.750000
vt 0.527778 0.250000
vt 0.541667 0.250000
vt 0.541667 0.000000
vt 0.527778 0.000000
vt 0.527778 0.500000
vt 0.541667 0.500000
vt 0.513889 1.000000
vt 0.513889 0.750000
vt 0.513889 0.250000
vt 0.513889 0.000000
vt 0.513889 0.500000
vt 0.500000 1.000000
vt 0.500000 0.750000
vt 0.500000 0.250000
vt 0.500000 0.000000
vt 0.500000 0.500000
vt 0.486111 1.000000
vt 0.486111 0.750000
vt 0.486111 0.250000
vt 0.486111 0.000000
vt 0.486111 0.500000
vt 0.472222 1.000000
vt 0.472222 0.750000
vt 0.472222 0.250000
vt 0.472222 0.000000
vt 0.472222 0.500000
vt 0.458333 1.000000
vt 0.458333 0.750000
vt 0.458333 0.250000
vt 0.458333 0.000000
vt 0.458333 0.500000
vt 0.402778 1.000000
vt 0.416667 1.000000
vt 0.416667 0.750000
vt 0.402778 0.750000
vt 0.402778 0.250000
vt 0.416667 0.250000
vt 0.416667 0.000000
vt 0.402778 0.000000
vt 0.402778 0.500000
vt 0.416667 0.500000
vt 0.430556 1.000000
vt 0.430556 0.750000
vt 0.430556 0.250000
vt 0.430556 0.000000
vt 0.430556 0.500000
vt 0.444444 1.000000
vt 0.444444 0.750000
vt 0.444444 0.250000
vt 0.444444 0.000000
vt 0.444444 0.500000
vt 0.375000 1.000000
vt 0.388889 1.000000
vt 0.388889 0.750000
vt 0.375000 0.750000
vt 0.375000 0.250000
vt 0.388889 0.250000
vt 0.388889 0.000000
vt 0.375000 0.000000
vt 0.375000 0.500000
vt 0.388889 0.500000
vt 0.361111 1.000000
vt 0.361111 0.750000
vt 0.361111 0.250000
vt 0.361111 0.000000
vt 0.361111 0.500000
vt 0.347222 1.000000
vt 0.347222 0.750000
vt 0.347222 0.250000
vt 0.347222 0.000000
vt 0.347222 0.500000
vt 0.333333 1.000000
vt 0.333333 0.750000
vt 0.333333 0.250000
vt 0.333333 0.000000
vt 0.333333 0.500000
vt 0.319444 1.000000
vt 0.319444 0.750000
vt 0.319444 0.250000
vt 0.319444 0.000000
vt 0.319444 0.500000
vt 0.305556 1.000000
vt 0.305556 0.750000
vt 0.305556 0.250000
vt 0.305556 0.000000
vt 0.305556 0.500000
vt 0.291667 1.000000
vt 0.291667 0.750000
vt 0.291667 0.250000
vt 0.291667 0.000000
vt 0.291667 0.500000
vt 0.277778 1.000000
vt 0.277778 0.750000
vt 0.277778 0.250000
vt 0.277778 0.000000
vt 0.277778 0.500000
vt 0.222222 1.000000
vt 0.236111 1.000000
vt 0.236111 0.750000
vt 0.222222 0.750000
vt 0.222222 0.250000
vt 0.236111 0.250000
vt 0.236111 0.000000
vt 0.222222 0.000000
vt 0.222222 0.500000
vt 0.236111 0.500000
vt 0.250000 1.000000
vt 0.250000 0.750000
vt 0.250000 0.250000
vt 0.250000 0.000000
vt 0.250000 0.500000
vt 0.263889 1.000000
vt 0.263889 0.750000
vt 0.263889 0.250000
vt 0.263889 0.000000
vt 0.263889 0.500000
vt 0.208333 1.000000
vt 0.208333 0.750000
vt 0.208333 0.250000
vt 0.208333 0.000000
vt 0.208333 0.500000
vt 0.194444 1.000000
vt 0.194444 0.750000
vt 0.194444 0.250000
vt 0.194444 0.000000
vt 0.194444 0.500000
vt 0.180556 1.000000
vt 0.180556 0.750000
vt 0.180556 0.250000
vt 0.180556 0.000000
vt 0.180556 0.500000
vt 0.166667 1.000000
vt 0.166667 0.750000
vt 0.166667 0.250000
vt 0.166667 0.000000
vt 0.166667 0.500000
vt 0.152778 1.000000
vt 0.152778 0.750000
vt 0.152778 0.250000
vt 0.152778 0.000000
vt 0.152778 0.500000
vt 0.138889 1.000000
vt 0.138889 0.750000
vt 0.138889 0.250000
vt 0.138889 0.000000
vt 0.138889 0.500000
vt 0.125000 1.000000
vt 0.125000 0.750000
vt 0.125000 0.250000
vt 0.125000 0.000000
vt 0.125000 0.500000
vt 0.111111 1.000000
vt 0.111111 0.750000
vt 0.111111 0.250000
vt 0.111111 0.000000
vt 0.111111 0.500000
vt 0.069444 1.000000
vt 0.083333 1.000000
vt 0.083333 0.750000
vt 0.069444 0.750000
vt 0.069444 0.250000
vt 0.083333 0.250000
vt 0.083333 0.000000
vt 0.069444 0.000000
vt 0.069444 0.500000
vt 0.083333 0.500000
vt 0.097222 1.000000
vt 0.097222 0.750000
vt 0.097222 0.250000
vt 0.097222 0.000000
vt 0.097222 0.500000
vt 0.055556 1.000000
vt 0.055556 0.750000
vt 0.055556 0.250000
vt 0.055556 0.000000
vt 0.055556 0.500000
s 1
usemtl Material.153
f 1/1/1 5/2/5 8/3/8 4/4/4
f 2/5/2 6/6/6 5/7/5 1/8/1
f 3/9/3 7/10/7 6/6/6 2/5/2
f 4/4/4 8/3/8 7/10/7 3/9/3
f 5/2/5 9/11/9 12/12/12 8/3/8
f 6/6/6 10/13/10 9/14/9 5/7/5
f 7/10/7 11/15/11 10/13/10 6/6/6
f 8/3/8 12/12/12 11/15/11 7/10/7
f 9/11/9 13/16/13 16/17/16 12/12/12
f 10/13/10 14/18/14 13/19/13 9/14/9
f 11/15/11 15/20/15 14/18/14 10/13/10
f 12/12/12 16/17/16 15/20/15 11/15/11
usemtl Material.015
f 17/21/17 21/22/21 24/23/24 20/24/20
f 18/25/18 22/26/22 21/27/21 17/28/17
f 19/29/19 23/30/23 22/26/22 18/25/18
f 20/24/20 24/23/24 23/30/23 19/29/19
f 21/22/21 25/31/25 28/32/28 24/23/24
f 22/26/22 26/33/26 25/34/25 21/27/21
f 23/30/23 27/35/27 26/33/26 22/26/22
f 24/23/24 28/32/28 27/35/27 23/30/23
f 25/31/25 29/36/29 32/37/32 28/32/28
f 26/33/26 30/38/30 29/39/29 25/34/25
f 27/35/27 31/40/31 30/38/30 26/33/26
f 28/32/28 32/37/32 31/40/31 27/35/27
usemtl Material.020
f 33/41/33 37/42/37 40/43/40 36/44/36
f 34/45/34 38/46/38 37/47/37 33/48/33
f 35/49/35 39/50/39 38/46/38 34/45/34
f 36/44/36 40/43/40 39/50/39 35/49/35
f 37/42/37 41/51/41 44/52/44 40/43/40
f 38/46/38 42/53/42 41/54/41 37/47/37
f 39/50/39 43/55/43 42/53/42 38/46/38
f 40/43/40 44/52/44 43/55/43 39/50/39
f 41/51/41 45/21/45 48/24/48 44/52/44
f 42/53/42 46/25/46 45/28/45 41/54/41
f 43/55/43 47/29/47 46/25/46 42/53/42
f 44/52/44 48/24/48 47/29/47 43/55/43
usemtl Material.021
f 49/56/49 53/57/53 56/58/56 52/59/52
f 50/60/50 54/61/54 53/62/53 49/63/49
f 51/64/51 55/65/55 54/61/54 50/60/50
f 52/59/52 56/58/56 55/65/55 51/64/51
f 53/57/53 57/41/57 60/44/60 56/58/56
f 54/61/54 58/45/58 57/48/57 53/62/53
f 55/65/55 59/49/59 58/45/58 54/61/54
f 56/58/56 60/44/60 59/49/59 55/65/55
usemtl Material.022
f 61/66/61 65/67/65 68/68/68 64/69/64
f 62/70/62 66/71/66 65/72/65 61/73/61
f 63/74/63 67/75/67 66/71/66 62/70/62
f 64/69/64 68/68/68 67/75/67 63/74/63
f 65/67/65 69/56/69 72/59/72 68/68/68
f 66/71/66 70/60/70 69/63/69 65/72/65
f 67/75/67 71/64/71 70/60/70 66/71/66
f 68/68/68 72/59/72 71/64/71 67/75/67
usemtl Material.023
f 73/76/73 77/77/77 80/78/80 76/79/76
f 74/80/74 78/81/78 77/82/77 73/83/73
f 75/84/75 79/85/79 78/81/78 74/80/74
f 76/79/76 80/78/80 79/85/79 75/84/75
f 77/77/77 81/66/81 84/69/84 80/78/80
f 78/81/78 82/70/82 81/73/81 77/82/77
f 79/85/79 83/74/83 82/70/82 78/81/78
f 80/78/80 84/69/84 83/74/83 79/85/79
usemtl Material.024
f 85/86/85 89/76/89 92/79/92 88/87/88
f 86/88/86 90/80/90 89/83/89 85/89/85
f 87/90/87 91/84/91 90/80/90 86/88/86
f 88/87/88 92/79/92 91/84/91 87/90/87
usemtl Material.025
f 93/91/93 97/92/97 100/93/100 96/94/96
f 94/95/94 98/96/98 97/97/97 93/98/93
f 95/99/95 99/100/99 98/96/98 94/95/94
f 96/94/96 100/93/100 99/100/99 95/99/95
f 97/92/97 101/86/101 104/87/104 100/93/100
f 98/96/98 102/88/102 101/89/101 97/97/97
f 99/100/99 103/90/103 102/88/102 98/96/98
f 100/93/100 104/87/104 103/90/103 99/100/99
usemtl Material.118
f 105/101/105 109/102/109 112/103/112 108/104/108
f 106/105/106 110/106/110 109/107/109 105/108/105
f 107/109/107 111/110/111 110/106/110 106/105/106
f 108/104/108 112/103/112 111/110/111 107/109/107
f 109/102/109 113/91/113 116/94/116 112/103/112
f 110/106/110 114/95/114 113/98/113 109/107/109
f 111/110/111 115/99/115 114/95/114 110/106/110
f 112/103/112 116/94/116 115/99/115 111/110/111
usemtl Material.119
f 117/111/117 121/112/121 124/113/124 120/114/120
f 118/115/118 122/116/122 121/117/121 117/118/117
f 119/119/119 123/120/123 122/116/122 118/115/118
f 120/114/120 124/113/124 123/120/123 119/119/119
f 121/112/121 125/121/125 128/122/128 124/113/124
f 122/116/122 126/123/126 125/124/125 121/117/121
f 123/120/123 127/125/127 126/123/126 122/116/122
f 124/113/124 128/122/128 127/125/127 123/120/123
f 125/121/125 129/101/129 132/104/132 128/122/128
f 126/123/126 130/105/130 129/108/129 125/124/125
f 127/125/127 131/109/131 130/105/130 126/123/126
f 128/122/128 132/104/132 131/109/131 127/125/127
usemtl Material.120
f 133/126/133 137/127/137 140/128/140 136/129/136
f 134/130/134 138/131/138 137/132/137 133/133/133
f 135/134/135 139/135/139 138/131/138 134/130/134
f 136/129/136 140/128/140 139/135/139 135/134/135
f 137/127/137 141/111/141 144/114/144 140/128/140
f 138/131/138 142/115/142 141/118/141 137/132/137
f 139/135/139 143/119/143 142/115/142 138/131/138
f 140/128/140 144/114/144 143/119/143 139/135/139
usemtl Material.121
f 145/136/145 149/126/149 152/129/152 148/137/148
f 146/138/146 150/130/150 149/133/149 145/139/145
f 147/140/147 151/134/151 150/130/150 146/138/146
f 148/137/148 152/129/152 151/134/151 147/140/147
usemtl Material.122
f 153/141/153 157/136/157 160/137/160 156/142/156
f 154/143/154 158/138/158 157/139/157 153/144/153
f 155/145/155 159/140/159 158/138/158 154/143/154
f 156/142/156 160/137/160 159/140/159 155/145/155
usemtl Material.123
f 161/146/161 165/141/165 168/142/168 164/147/164
f 162/148/162 166/143/166 165/144/165 161/149/161
f 163/150/163 167/145/167 166/143/166 162/148/162
f 164/147/164 168/142/168 167/145/167 163/150/163
usemtl Material.124
f 169/151/169 173/152/173 176/153/176 172/154/172
f 170/155/170 174/156/174 173/157/173 169/158/169
f 171/159/171 175/160/175 174/156/174 170/155/170
f 172/154/172 176/153/176 175/160/175 171/159/171
f 173/152/173 177/146/177 180/147/180 176/153/176
f 174/156/174 178/148/178 177/149/177 173/157/173
f 175/160/175 179/150/179 178/148/178 174/156/174
f 176/153/176 180/147/180 179/150/179 175/160/175
usemtl Material.125
f 181/161/181 185/162/185 188/163/188 184/164/184
f 182/165/182 186/166/186 185/167/185 181/168/181
f 183/169/183 187/170/187 186/166/186 182/165/182
f 184/164/184 188/163/188 187/170/187 183/169/183
f 185/162/185 189/151/189 192/154/192 188/163/188
f 186/166/186 190/155/190 189/158/189 185/167/185
f 187/170/187 191/159/191 190/155/190 186/166/186
f 188/163/188 192/154/192 191/159/191 187/170/187
usemtl Material.126
f 193/171/193 197/172/197 200/173/200 196/174/196
f 194/175/194 198/176/198 197/177/197 193/178/193
f 195/179/195 199/180/199 198/176/198 194/175/194
f 196/174/196 200/173/200 199/180/199 195/179/195
f 197/172/197 201/181/201 204/182/204 200/173/200
f 198/176/198 202/183/202 201/184/201 197/177/197
f 199/180/199 203/185/203 202/183/202 198/176/198
f 200/173/200 204/182/204 203/185/203 199/180/199
f 201/181/201 205/161/205 208/164/208 204/182/204
f 202/183/202 206/165/206 205/168/205 201/184/201
f 203/185/203 207/169/207 206/165/206 202/183/202
f 204/182/204 208/164/208 207/169/207 203/185/203
usemtl Material.127
f 209/186/209 213/187/213 216/188/216 212/189/212
f 210/190/210 214/191/214 213/192/213 209/193/209
f 211/194/211 215/195/215 214/191/214 210/190/210
f 212/189/212 216/188/216 215/195/215 211/194/211
f 213/187/213 217/171/217 220/174/220 216/188/216
f 214/191/214 218/175/218 217/178/217 213/192/213
f 215/195/215 219/179/219 218/175/218 214/191/214
f 216/188/216 220/174/220 219/179/219 215/195/215
usemtl Material.128
f 221/196/221 225/186/225 228/189/228 224/197/224
f 222/198/222 226/190/226 225/193/225 221/199/221
f 223/200/223 227/194/227 226/190/226 222/198/222
f 224/197/224 228/189/228 227/194/227 223/200/223
usemtl Material.129
f 229/201/229 233/196/233 236/197/236 232/202/232
f 230/203/230 234/198/234 233/199/233 229/204/229
f 231/205/231 235/200/235 234/198/234 230/203/230
f 232/202/232 236/197/236 235/200/235 231/205/231
usemtl Material.130
f 237/206/237 241/201/241 244/202/244 240/207/240
f 238/208/238 242/203/242 241/204/241 237/209/237
f 239/210/239 243/205/243 242/203/242 238/208/238
f 240/207/240 244/202/244 243/205/243 239/210/239
usemtl Material.131
f 245/211/245 249/206/249 252/207/252 248/212/248
f 246/213/246 250/208/250 249/209/249 245/214/245
f 247/215/247 251/210/251 250/208/250 246/213/246
f 248/212/248 252/207/252 251/210/251 247/215/247
usemtl Material.132
f 253/216/253 257/211/257 260/212/260 256/217/256
f 254/218/254 258/213/258 257/214/257 253/219/253
f 255/220/255 259/215/259 258/213/258 254/218/254
f 256/217/256 260/212/260 259/215/259 255/220/255
usemtl Material.133
f 261/221/261 265/222/265 268/223/268 264/224/264
f 262/225/262 266/226/266 265/227/265 261/228/261
f 263/229/263 267/230/267 266/226/266 262/225/262
f 264/224/264 268/223/268 267/230/267 263/229/263
f 265/222/265 269/231/269 272/232/272 268/223/268
f 266/226/266 270/233/270 269/234/269 265/227/265
f 267/230/267 271/235/271 270/233/270 266/226/266
f 268/223/268 272/232/272 271/235/271 267/230/267
f 269/231/269 273/236/273 276/237/276 272/232/272
f 270/233/270 274/238/274 273/239/273 269/234/269
f 271/235/271 275/240/275 274/238/274 270/233/270
f 272/232/272 276/237/276 275/240/275 271/235/271
f 273/236/273 277/216/277 280/217/280 276/237/276
f 274/238/274 278/218/278 277/219/277 273/239/273
f 275/240/275 279/220/279 278/218/278 274/238/274
f 276/237/276 280/217/280 279/220/279 275/240/275
usemtl Material.134
f 281/241/281 285/242/285 288/243/288 284/244/284
f 282/245/282 286/246/286 285/247/285 281/248/281
f 283/249/283 287/250/287 286/246/286 282/245/282
f 284/244/284 288/243/288 287/250/287 283/249/283
f 285/242/285 289/221/289 292/224/292 288/243/288
f 286/246/286 290/225/290 289/228/289 285/247/285
f 287/250/287 291/229/291 290/225/290 286/246/286
f 288/243/288 292/224/292 291/229/291 287/250/287
usemtl Material.135
f 293/251/293 297/241/297 300/244/300 296/252/296
f 294/253/294 298/245/298 297/248/297 293/254/293
f 295/255/295 299/249/299 298/245/298 294/253/294
f 296/252/296 300/244/300 299/249/299 295/255/295
usemtl Material.136
f 301/256/301 305/251/305 308/252/308 304/257/304
f 302/258/302 306/253/306 305/254/305 301/259/301
f 303/260/303 307/255/307 306/253/306 302/258/302
f 304/257/304 308/252/308 307/255/307 303/260/303
usemtl Material.137
f 309/261/309 313/256/313 316/257/316 312/262/312
f 310/263/310 314/258/314 313/259/313 309/264/309
f 311/265/311 315/260/315 314/258/314 310/263/310
f 312/262/312 316/257/316 315/260/315 311/265/311
usemtl Material.138
f 317/266/317 321/261/321 324/262/324 320/267/320
f 318/268/318 322/263/322 321/264/321 317/269/317
f 319/270/319 323/265/323 322/263/322 318/268/318
f 320/267/320 324/262/324 323/265/323 319/270/319
usemtl Material.139
f 325/271/325 329/266/329 332/267/332 328/272/328
f 326/273/326 330/268/330 329/269/329 325/274/325
f 327/275/327 331/270/331 330/268/330 326/273/326
f 328/272/328 332/267/332 331/270/331 327/275/327
usemtl Material.140
f 333/276/333 337/271/337 340/272/340 336/277/336
f 334/278/334 338/273/338 337/274/337 333/279/333
f 335/280/335 339/275/339 338/273/338 334/278/334
f 336/277/336 340/272/340 339/275/339 335/280/335
usemtl Material.141
f 341/281/341 345/276/345 348/277/348 344/282/344
f 342/283/342 346/278/346 345/279/345 341/284/341
f 343/285/343 347/280/347 346/278/346 342/283/342
f 344/282/344 348/277/348 347/280/347 343/285/343
usemtl Material.142
f 349/286/349 353/287/353 356/288/356 352/289/352
f 350/290/350 354/291/354 353/292/353 349/293/349
f 351/294/351 355/295/355 354/291/354 350/290/350
f 352/289/352 356/288/356 355/295/355 351/294/351
f 353/287/353 357/296/357 360/297/360 356/288/356
f 354/291/354 358/298/358 357/299/357 353/292/353
f 355/295/355 359/300/359 358/298/358 354/291/354
f 356/288/356 360/297/360 359/300/359 355/295/355
f 357/296/357 361/301/361 364/302/364 360/297/360
f 358/298/358 362/303/362 361/304/361 357/299/357
f 359/300/359 363/305/363 362/303/362 358/298/358
f 360/297/360 364/302/364 363/305/363 359/300/359
f 361/301/361 365/281/365 368/282/368 364/302/364
f 362/303/362 366/283/366 365/284/365 361/304/361
f 363/305/363 367/285/367 366/283/366 362/303/362
f 364/302/364 368/282/368 367/285/367 363/305/363
usemtl Material.143
f 369/306/369 373/286/373 376/289/376 372/307/372
f 370/308/370 374/290/374 373/293/373 369/309/369
f 371/310/371 375/294/375 374/290/374 370/308/370
f 372/307/372 376/289/376 375/294/375 371/310/371
usemtl Material.144
f 377/311/377 381/306/381 384/307/384 380/312/380
f 378/313/378 382/308/382 381/309/381 377/314/377
f 379/315/379 383/310/383 382/308/382 378/313/378
f 380/312/380 384/307/384 383/310/383 379/315/379
usemtl Material.145
f 385/316/385 389/311/389 392/312/392 388/317/388
f 386/318/386 390/313/390 389/314/389 385/319/385
f 387/320/387 391/315/391 390/313/390 386/318/386
f 388/317/388 392/312/392 391/315/391 387/320/387
usemtl Material.146
f 393/321/393 397/316/397 400/317/400 396/322/396
f 394/323/394 398/318/398 397/319/397 393/324/393
f 395/325/395 399/320/399 398/318/398 394/323/394
f 396/322/396 400/317/400 399/320/399 395/325/395
usemtl Material.147
f 401/326/401 405/321/405 408/322/408 404/327/404
f 402/328/402 406/323/406 405/324/405 401/329/401
f 403/330/403 407/325/407 406/323/406 402/328/402
f 404/327/404 408/322/408 407/325/407 403/330/403
usemtl Material.148
f 409/331/409 413/326/413 416/327/416 412/332/412
f 410/333/410 414/328/414 413/329/413 409/334/409
f 411/335/411 415/330/415 414/328/414 410/333/410
f 412/332/412 416/327/416 415/330/415 411/335/411
usemtl Material.149
f 417/336/417 421/331/421 424/332/424 420/337/420
f 418/338/418 422/333/422 421/334/421 417/339/417
f 419/340/419 423/335/423 422/333/422 418/338/418
f 420/337/420 424/332/424 423/335/423 419/340/419
usemtl Material.150
f 425/341/425 429/336/429 432/337/432 428/342/428
f 426/343/426 430/338/430 429/339/429 425/344/425
f 427/345/427 431/340/431 430/338/430 426/343/426
f 428/342/428 432/337/432 431/340/431 427/345/427
usemtl Material.151
f 433/346/433 437/347/437 440/348/440 436/349/436
f 434/350/434 438/351/438 437/352/437 433/353/433
f 435/354/435 439/355/439 438/351/438 434/350/434
f 436/349/436 440/348/440 439/355/439 435/354/435
f 437/347/437 441/356/441 444/357/444 440/348/440
f 438/351/438 442/358/442 441/359/441 437/352/437
f 439/355/439 443/360/443 442/358/442 438/351/438
f 440/348/440 444/357/444 443/360/443 439/355/439
f 441/356/441 445/341/445 448/342/448 444/357/444
f 442/358/442 446/343/446 445/344/445 441/359/441
f 443/360/443 447/345/447 446/343/446 442/358/442
f 444/357/444 448/342/448 447/345/447 443/360/443
usemtl Material.152
f 449/16/449 453/361/453 456/362/456 452/17/452
f 450/18/450 454/363/454 453/364/453 449/19/449
f 451/20/451 455/365/455 454/363/454 450/18/450
f 452/17/452 456/362/456 455/365/455 451/20/451
f 453/361/453 457/346/457 460/349/460 456/362/456
f 454/363/454 458/350/458 457/353/457 453/364/453
f 455/365/455 459/354/459 458/350/458 454/363/454
f 456/362/456 460/349/460 459/354/459 455/365/455
