# Blender 4.5.9 LTS
# www.blender.org
mtllib base.mtl
o base
v -0.022653 -0.012333 -0.002002
v -0.006357 -0.012333 -0.002002
v -0.022653 0.003963 -0.002002
v -0.006357 0.003963 -0.002002
v 0.034397 -0.012333 -0.002002
v 0.034397 0.003963 -0.002002
v -0.022653 0.008369 -0.002002
v -0.006357 0.008369 -0.002002
v 0.034397 0.008369 -0.002002
v -0.022653 0.003963 0.002002
v -0.022653 -0.012333 0.002002
v -0.006357 -0.012333 0.002002
v -0.006357 0.003963 0.002002
v 0.034397 -0.012333 0.002002
v 0.034397 0.003963 0.002002
v -0.006357 0.008369 0.002002
v -0.022653 0.008369 0.002002
v 0.034397 0.008369 0.002002
v -0.027345 0.003963 -0.002002
v -0.027345 -0.012333 -0.002002
v -0.027345 0.008369 -0.002002
v -0.027345 0.003963 0.002002
v -0.027345 -0.012333 0.002002
v -0.027345 0.008369 0.002002
v 0.039859 -0.012333 -0.002002
v 0.039859 0.003963 -0.002002
v 0.039859 0.008369 -0.002002
v 0.039859 -0.012333 0.002002
v 0.039859 0.003963 0.002002
v 0.039859 0.008369 0.002002
v -0.028837 0.003963 -0.002002
v -0.028837 -0.012333 -0.002002
v -0.028837 0.008369 -0.002002
v -0.028837 0.003963 0.002002
v -0.028837 -0.012333 0.002002
v -0.028837 0.008369 0.002002
v -0.031349 0.003963 -0.002002
v -0.031349 -0.012333 -0.002002
v -0.031349 0.008369 -0.002002
v -0.031349 0.003963 0.002002
v -0.031349 -0.012333 0.002002
v -0.031349 0.008369 0.002002
v 0.042285 -0.012333 -0.002002
v 0.042285 0.003963 -0.002002
v 0.042285 0.008369 -0.002002
v 0.042285 -0.012333 0.002002
v 0.042285 0.003963 0.002002
v 0.042285 0.008369 0.002002
v -0.032777 0.003963 -0.002002
v -0.032777 -0.012333 -0.002002
v -0.032777 0.008369 -0.002002
v -0.032777 0.003963 0.002002
v -0.032777 -0.012333 0.002002
v -0.032777 0.008369 0.002002
v 0.043269 -0.012333 -0.002002
v 0.043269 0.003963 -0.002002
v 0.043269 0.008369 -0.002002
v 0.043269 -0.012333 0.002002
v 0.043269 0.003963 0.002002
v 0.043269 0.008369 0.002002
v -0.036145 0.003963 -0.002002
v -0.036145 -0.012333 -0.002002
v -0.036145 0.008369 -0.002002
v -0.036145 0.003963 0.002002
v -0.036145 -0.012333 0.002002
v -0.036145 0.008369 0.002002
v 0.045293 -0.012333 -0.002002
v 0.045293 0.003963 -0.002002
v 0.045293 0.008369 -0.002002
v 0.045293 -0.012333 0.002002
v 0.045293 0.003963 0.002002
v 0.045293 0.008369 0.002002
vn -0.0000 -0.0000 -1.0000
vn -0.0000 -0.0000 1.0000
vn -0.0000 -1.0000 -0.0000
vn -0.0000 1.0000 -0.0000
vn -1.0000 -0.0000 -0.0000
vn 1.0000 -0.0000 -0.0000
vt 0.000000 0.000000
vt 0.000000 1.000000
vt 1.000000 1.000000
vt 1.000000 0.000000
s 0
usemtl Material
f 1/1/1 3/2/1 4/3/1 2/4/1
f 4/3/1 6/3/1 5/4/1 2/4/1
f 4/3/1 8/3/1 9/3/1 6/3/1
f 3/2/1 7/2/1 8/3/1 4/3/1
f 11/1/2 12/4/2 13/3/2 10/2/2
f 13/3/2 12/4/2 14/4/2 15/3/2
f 13/3/2 15/3/2 18/3/2 16/3/2
f 10/2/2 13/3/2 16/3/2 17/2/2
f 2/4/3 5/4/3 14/4/3 12/4/3
f 14/4/3 5/4/3 25/4/3 28/4/3
f 3/2/1 1/1/1 20/1/1 19/2/1
f 17/2/4 7/2/4 21/2/4 24/2/4
f 8/3/4 7/2/4 17/2/4 16/3/4
f 1/1/3 2/4/3 12/4/3 11/1/3
f 5/4/1 6/3/1 26/3/1 25/4/1
f 9/3/4 8/3/4 16/3/4 18/3/4
f 22/2/2 24/2/2 36/2/2 34/2/2
f 24/2/4 21/2/4 33/2/4 36/2/4
f 7/2/1 3/2/1 19/2/1 21/2/1
f 1/1/3 11/1/3 23/1/3 20/1/3
f 11/1/2 10/2/2 22/2/2 23/1/2
f 10/2/2 17/2/2 24/2/2 22/2/2
f 28/4/3 25/4/3 43/4/3 46/4/3
f 27/3/4 30/3/4 48/3/4 45/3/4
f 18/3/2 15/3/2 29/3/2 30/3/2
f 9/3/4 18/3/4 30/3/4 27/3/4
f 15/3/2 14/4/2 28/4/2 29/3/2
f 6/3/1 9/3/1 27/3/1 26/3/1
f 34/2/2 36/2/2 42/2/2 40/2/2
f 36/2/4 33/2/4 39/2/4 42/2/4
f 21/2/1 19/2/1 31/2/1 33/2/1
f 20/1/3 23/1/3 35/1/3 32/1/3
f 23/1/2 22/2/2 34/2/2 35/1/2
f 19/2/1 20/1/1 32/1/1 31/2/1
f 38/1/3 41/1/3 53/1/3 50/1/3
f 39/2/1 37/2/1 49/2/1 51/2/1
f 33/2/1 31/2/1 37/2/1 39/2/1
f 32/1/3 35/1/3 41/1/3 38/1/3
f 35/1/2 34/2/2 40/2/2 41/1/2
f 31/2/1 32/1/1 38/1/1 37/2/1
f 48/3/2 47/3/2 59/3/2 60/3/2
f 43/4/1 44/3/1 56/3/1 55/4/1
f 29/3/2 28/4/2 46/4/2 47/3/2
f 25/4/1 26/3/1 44/3/1 43/4/1
f 30/3/2 29/3/2 47/3/2 48/3/2
f 26/3/1 27/3/1 45/3/1 44/3/1
f 52/2/2 54/2/2 66/2/2 64/2/2
f 54/2/4 51/2/4 63/2/4 66/2/4
f 41/1/2 40/2/2 52/2/2 53/1/2
f 37/2/1 38/1/1 50/1/1 49/2/1
f 42/2/4 39/2/4 51/2/4 54/2/4
f 40/2/2 42/2/2 54/2/2 52/2/2
f 56/3/1 57/3/1 69/3/1 68/3/1
f 60/3/2 59/3/2 71/3/2 72/3/2
f 44/3/1 45/3/1 57/3/1 56/3/1
f 45/3/4 48/3/4 60/3/4 57/3/4
f 46/4/3 43/4/3 55/4/3 58/4/3
f 47/3/2 46/4/2 58/4/2 59/3/2
f 63/2/5 61/2/5 64/2/5 66/2/5
f 61/2/5 62/1/5 65/1/5 64/2/5
f 51/2/1 49/2/1 61/2/1 63/2/1
f 50/1/3 53/1/3 65/1/3 62/1/3
f 53/1/2 52/2/2 64/2/2 65/1/2
f 49/2/1 50/1/1 62/1/1 61/2/1
f 67/4/6 68/3/6 71/3/6 70/4/6
f 68/3/6 69/3/6 72/3/6 71/3/6
f 57/3/4 60/3/4 72/3/4 69/3/4
f 58/4/3 55/4/3 67/4/3 70/4/3
f 59/3/2 58/4/2 70/4/2 71/3/2
f 55/4/1 56/3/1 68/3/1 67/4/1
