# Blender 4.5.9 LTS
# www.blender.org
mtllib ring_chunky.mtl
o ring_chunky
v -0.003481 -0.003481 -0.000492
v -0.003481 -0.003481 0.000492
v -0.003481 0.003481 -0.000492
v -0.003481 0.003481 0.000492
v 0.003481 -0.003481 -0.000492
v 0.003481 -0.003481 0.000492
v 0.003481 0.003481 -0.000492
v 0.003481 0.003481 0.000492
v -0.002571 0.002571 -0.000492
v 0.002571 -0.002571 -0.000492
v 0.002571 0.002571 -0.000492
v -0.002571 -0.002571 -0.000492
v -0.002571 0.002571 0.000492
v -0.002571 -0.002571 0.000492
v 0.002571 -0.002571 0.000492
v 0.002571 0.002571 0.000492
vn -1.0000 -0.0000 -0.0000
vn -0.0000 1.0000 -0.0000
vn 1.0000 -0.0000 -0.0000
vn -0.0000 -1.0000 -0.0000
vn -0.0000 -0.0000 -1.0000
vn -0.0000 -0.0000 1.0000
vt 0.625000 0.000000
vt 0.375000 0.250000
vt 0.375000 0.000000
vt 0.625000 0.250000
vt 0.375000 0.500000
vt 0.625000 0.500000
vt 0.375000 0.750000
vt 0.625000 0.750000
vt 0.375000 1.000000
vt 0.342335 0.532665
vt 0.125000 0.750000
vt 0.125000 0.500000
vt 0.157666 0.717335
vt 0.657665 0.532665
vt 0.657665 0.717335
vt 0.875000 0.500000
vt 0.875000 0.750000
vt 0.842334 0.532665
vt 0.454825 0.000000
vt 0.545175 0.250000
vt 0.545175 0.000000
vt 0.454825 0.250000
vt 0.545175 0.500000
vt 0.454825 0.750000
vt 0.454825 0.500000
vt 0.454825 1.000000
vt 0.545175 0.750000
vt 0.625000 1.000000
vt 0.342335 0.717335
vt 0.157666 0.532665
vt 0.842334 0.717335
vt 0.545175 1.000000
s 1
usemtl Material.165
f 2/1/1 3/2/1 1/3/1
f 4/4/2 7/5/2 3/2/2
f 8/6/3 5/7/3 7/5/3
f 6/8/4 1/9/4 5/7/4
f 5/7/5 11/10/5 7/5/5
f 1/11/5 3/12/5 12/13/5
f 6/8/6 16/14/6 15/15/6
f 4/16/6 2/17/6 13/18/6
f 12/19/3 13/20/3 14/21/3
f 9/22/4 16/23/4 13/20/4
f 10/24/1 16/23/1 11/25/1
f 12/26/2 15/27/2 10/24/2
f 2/1/1 4/4/1 3/2/1
f 4/4/2 8/6/2 7/5/2
f 8/6/3 6/8/3 5/7/3
f 6/8/4 2/28/4 1/9/4
f 5/7/5 10/29/5 11/10/5
f 10/29/5 5/7/5 12/13/5
f 5/7/5 1/11/5 12/13/5
f 3/12/5 7/5/5 9/30/5
f 7/5/5 11/10/5 9/30/5
f 3/12/5 9/30/5 12/13/5
f 6/8/6 8/6/6 16/14/6
f 13/18/6 16/14/6 8/6/6
f 2/17/6 6/8/6 14/31/6
f 6/8/6 15/15/6 14/31/6
f 13/18/6 8/6/6 4/16/6
f 2/17/6 14/31/6 13/18/6
f 12/19/3 9/22/3 13/20/3
f 9/22/4 11/25/4 16/23/4
f 10/24/1 15/27/1 16/23/1
f 12/26/2 14/32/2 15/27/2
